<?xml version="1.0" encoding="UTF-8" standalone="no"?>
<!-- Created with Inkscape (http://www.inkscape.org/) -->

<svg
   xmlns:dc="http://purl.org/dc/elements/1.1/"
   xmlns:cc="http://creativecommons.org/ns#"
   xmlns:rdf="http://www.w3.org/1999/02/22-rdf-syntax-ns#"
   xmlns:svg="http://www.w3.org/2000/svg"
   xmlns="http://www.w3.org/2000/svg"
   xmlns:sodipodi="http://sodipodi.sourceforge.net/DTD/sodipodi-0.dtd"
   xmlns:inkscape="http://www.inkscape.org/namespaces/inkscape"
   width="66.278999mm"
   height="79.434135mm"
   viewBox="0 0 234.84685 281.45953"
   id="svg4922"
   version="1.1"
   inkscape:version="0.91 r13725"
   sodipodi:docname="Calle13 logo.svg">
  <title
     id="title5565">Calle13 logo</title>
  <defs
     id="defs4924" />
  <sodipodi:namedview
     id="base"
     pagecolor="#ffffff"
     bordercolor="#666666"
     borderopacity="1.0"
     inkscape:pageopacity="0.0"
     inkscape:pageshadow="2"
     inkscape:zoom="1.4"
     inkscape:cx="90.465701"
     inkscape:cy="131.42568"
     inkscape:document-units="px"
     inkscape:current-layer="layer1"
     showgrid="false"
     fit-margin-top="0"
     fit-margin-left="0"
     fit-margin-right="0"
     fit-margin-bottom="0"
     inkscape:window-width="1366"
     inkscape:window-height="705"
     inkscape:window-x="-8"
     inkscape:window-y="-8"
     inkscape:window-maximized="1" />
  <metadata
     id="metadata4927">
    <rdf:RDF>
      <cc:Work
         rdf:about="">
        <dc:format>image/svg+xml</dc:format>
        <dc:type
           rdf:resource="http://purl.org/dc/dcmitype/StillImage" />
        <dc:title>Calle13 logo</dc:title>
        <cc:license
           rdf:resource="http://creativecommons.org/licenses/by-sa/3.0/" />
        <dc:creator>
          <cc:Agent>
            <dc:title>Universal Studios Networks</dc:title>
          </cc:Agent>
        </dc:creator>
        <dc:publisher>
          <cc:Agent>
            <dc:title>CMetalCore</dc:title>
          </cc:Agent>
        </dc:publisher>
        <dc:date>16/11/2016</dc:date>
      </cc:Work>
      <cc:License
         rdf:about="http://creativecommons.org/licenses/by-sa/3.0/">
        <cc:permits
           rdf:resource="http://creativecommons.org/ns#Reproduction" />
        <cc:permits
           rdf:resource="http://creativecommons.org/ns#Distribution" />
        <cc:requires
           rdf:resource="http://creativecommons.org/ns#Notice" />
        <cc:requires
           rdf:resource="http://creativecommons.org/ns#Attribution" />
        <cc:permits
           rdf:resource="http://creativecommons.org/ns#DerivativeWorks" />
        <cc:requires
           rdf:resource="http://creativecommons.org/ns#ShareAlike" />
      </cc:License>
    </rdf:RDF>
  </metadata>
  <g
     inkscape:label="Capa 1"
     inkscape:groupmode="layer"
     id="layer1"
     transform="translate(-107.63852,-53.061283)">
    <g
       id="g5559"
       transform="matrix(0.14429256,0,0,0.14429256,193.94117,68.443195)">
      <path
         d="m 698.14118,1787.071 c 0,-2.3383 -23.10625,-47.9476 -23.88938,-47.1551 -0.91737,0.9286 -22.36062,46.3476 -22.36062,47.3621 0,0.2678 10.40625,0.4869 23.125,0.4869 12.71875,0 23.125,-0.3122 23.125,-0.6939 z m -106.25,47.2403 c 0,-1.212 1.19892,-2.7589 2.66428,-3.4375 1.96635,-0.9107 9.19423,-15.9668 27.59225,-57.4764 13.71038,-30.9334 25.22183,-57.7117 25.58099,-59.5076 0.45388,-2.2694 0.0445,-3.4986 -1.34225,-4.0308 -1.0974,-0.4211 -1.99527,-1.6271 -1.99527,-2.6798 0,-1.6679 4.01339,-1.9143 31.17625,-1.9143 31.869,0 36.00775,0.6273 30.57725,4.6343 -1.30825,0.9652 -2.19925,2.6282 -1.98012,3.6954 0.21899,1.0673 10.96149,24.2392 23.87212,51.4929 12.91063,27.2538 25.06587,53.12 27.01175,57.4804 2.32975,5.2209 4.529,8.3049 6.44038,9.0316 1.59625,0.6069 2.90237,1.9612 2.90237,3.0094 0,1.6445 -3.43075,1.906 -25,1.906 -24.16663,0 -25,-0.084 -25,-2.5 0,-1.3889 0.83337,-2.5 1.875,-2.5 2.65537,0 2.412,-1.1831 -2.42888,-11.8057 l -4.30387,-9.4443 -34.13363,0.043 -34.13362,0.043 -4.084,9.0196 c -4.58811,10.133 -4.83559,11.5723 -2.166,12.5967 1.03125,0.3957 1.875,1.581 1.875,2.6337 0,1.6481 -3.12839,1.9143 -22.5,1.9143 -20.65783,0 -22.5,-0.1804 -22.5,-2.2037 z m -229.68956,-72.8615 c 10.05683,-2.793 14.74987,-11.986 10.88372,-21.3196 -3.01536,-7.2798 -8.34934,-8.5564 -35.88166,-8.5878 l -24.0625,-0.028 0,15.625 0,15.625 22.1875,-0.012 c 12.20312,0 24.29595,-0.5925 26.87294,-1.3081 z m -92.81044,72.7109 c 0,-1.3029 1.11635,-2.6462 2.5,-3.0079 2.4558,-0.6423 2.5,-1.7052 2.5,-60.122 l 0,-59.4683 -3.125,-0.7843 c -1.95554,-0.4908 -3.125,-1.6692 -3.125,-3.1488 0,-2.2809 1.81364,-2.3645 51.31574,-2.3645 57.1424,0 62.93701,0.6084 75.05105,7.8799 7.72945,4.6395 14.16241,12.4991 16.35751,19.9851 2.60115,8.8709 2.01125,23.1056 -1.23431,29.7855 -3.73573,7.6886 -11.34845,15.0213 -20.70582,19.9439 -4.21255,2.2161 -7.85703,4.1899 -8.09886,4.3862 -0.71581,0.5813 25.44513,39.7079 28.05064,41.9529 1.31397,1.1321 3.50759,2.2635 4.8747,2.5143 1.3671,0.2507 2.67397,1.4338 2.90415,2.6291 0.38839,2.0167 -1.79893,2.1731 -30.3898,2.1731 -28.36679,0 -30.77576,-0.169 -30.39759,-2.1327 0.22589,-1.1729 1.81401,-2.479 3.52915,-2.9023 2.21369,-0.5464 3.03876,-1.5217 2.84383,-3.3617 -0.15104,-1.4255 -5.13003,-11.0883 -11.06442,-21.4727 l -10.78981,-18.8806 -13.6526,0 -13.6526,0 0.34203,21.5073 0.34201,21.5072 3.11844,0.7351 c 1.71513,0.4043 3.30326,1.6948 3.52915,2.8676 0.3764,1.9545 -1.73849,2.1328 -25.30594,2.1328 -24.35246,0 -25.71665,-0.125 -25.71665,-2.3542 z m -305.416665,1.5208 c -1.587275,-1.5872 -0.8191,-2.9839 2.291663,-4.1666 1.853537,-0.7047 3.125,-2.1764 3.125,-3.617 0,-2.4321 -19.4849,-60.2003 -30.6122,-90.758 -7.283725,-20.0025 -10.139675,-25.7288 -13.236013,-26.5385 -1.320975,-0.3455 -2.401787,-1.6875 -2.401787,-2.9823 0,-2.2358 1.4139,-2.3542 28.125,-2.3542 27.291662,0 28.125,0.074 28.125,2.5 0,1.8173 -0.833338,2.5 -3.051225,2.5 -1.678175,0 -3.347775,0.4798 -3.710213,1.0663 -0.362437,0.5863 5.423638,17.7897 12.857938,38.2296 l 13.51691155,37.1633 4.47422595,-10.4171 c 13.5409755,-31.5269 25.9246245,-62.9572 25.3723755,-64.3963 -0.34735,-0.9052 -1.7742,-1.6458 -3.170788,-1.6458 -1.705887,0 -2.539225,-0.8205 -2.539225,-2.5 0,-2.4166 0.833338,-2.5 25,-2.5 23.04573,0 25,0.1723 25,2.2036 0,1.212 -1.21873,2.7589 -2.70829,3.4375 -2.00829,0.915 -5.02709,7.0494 -11.67957,23.7339 -4.9342,12.375 -15.524953,38.4772 -23.53499,58.005 -14.677575,35.7826 -15.475763,38.87 -10.0491,38.87 0.947075,0 1.72195,1.125 1.72195,2.5 0,2.4329 -0.833338,2.5 -31.0416635,2.5 -17.0729245,0 -31.4166745,-0.375 -31.8749995,-0.8334 z m -122.083335,-1.6666 c 0,-1.9379 0.83334,-2.5 3.70602,-2.5 2.38471,0 4.16736,-0.862 5,-2.4179 0.83698,-1.5638 1.29398,-22.2815 1.29398,-58.6606 0,-61.2297 0.12248,-60.1715 -6.96429,-60.1715 -2.21145,0 -3.03571,-0.685 -3.03571,-2.5226 0,-2.4688 0.63387,-2.5155 29.6875,-2.1875 25.40661,0.2867 29.687498,0.6055 29.687498,2.2101 0,1.0514 -1.372678,2.0649 -3.124998,2.3073 -6.44175,0.8911 -6.25,-0.998 -6.25,61.572 l 0,58.5731 3.4375,0.7532 c 5.893885,1.2914 6.562498,1.6613 6.562498,3.6301 0,1.6659 -3.893418,1.9143 -29.999998,1.9143 -29.16666,0 -30,-0.07 -30,-2.5 z m -193.52259,0.3673 c 0.22589,-1.1729 1.81401,-2.4639 3.52915,-2.8687 l 3.11844,-0.736 0.32464,-59.6601 0.32463,-59.6601 -3.76213,-0.7525 c -2.57768,-0.5155 -3.76214,-1.4903 -3.76214,-3.0961 0,-2.2369 1.625,-2.3438 35.625,-2.3438 33.19432,0 35.625,0.1504 35.625,2.2036 0,1.212 -1.22924,2.7589 -2.73164,3.4375 -5.82344,2.6305 -5.41807,3.1972 25.91762,36.2339 9.78152,10.3125 18.95375,20.1563 20.38272,21.875 l 2.59812,3.125 0.0416,-30.3437 0.0416,-30.3438 -3.75,-0.75 c -2.56666,-0.5134 -3.75,-1.4896 -3.75,-3.0937 0,-2.2173 1.41667,-2.3438 26.25,-2.3438 25.41667,0 26.25,0.079 26.25,2.5 0,1.7754 -0.83333,2.5 -2.875,2.5 -5.91566,0 -5.875,-0.4203 -5.875,60.722 0,60.782 -0.10375,59.6598 5.61065,60.7204 1.3671,0.2537 2.67607,1.4501 2.90881,2.6586 0.39507,2.0515 -1.42941,2.175 -27.48564,1.8606 -23.74214,-0.2864 -27.90882,-0.6147 -27.90882,-2.1993 0,-1.0903 1.54866,-2.1311 3.73474,-2.5097 8.39817,-1.4546 6.98149,-3.4676 -29.91168,-42.5026 -14.62,-15.4687 -28.90017,-30.6562 -31.73368,-33.75 l -5.15186,-5.625 -0.0312,39.5345 c -0.0329,41.5184 -0.0365,41.4905 5.5794,42.5329 1.3671,0.2537 2.67397,1.4392 2.90415,2.6345 0.38687,2.0089 -1.57959,2.1731 -26.0148,2.1731 -24.24295,0 -26.39928,-0.1767 -26.02259,-2.1327 z m 856.64759,3.8273 c -11.24124,-1.0726 -30.12396,-4.3655 -42.57195,-7.4237 -12.14036,-2.9828 -13.40876,-3.0864 -15.42645,-1.2605 -2.50934,2.271 -6.3766,2.6556 -6.3766,0.6342 0,-0.7455 2.53125,-9.5081 5.625,-19.4725 3.09375,-9.9643 5.625,-18.3545 5.625,-18.6446 0,-0.2901 1.125,-0.5275 2.5,-0.5275 1.83723,0 2.5,0.8334 2.5,3.1434 0,7.9035 27.34663,15.6703 55.65706,15.8077 18.37407,0.089 28.09294,-3.7974 28.09294,-11.2339 0,-7.5083 -6.66674,-10.0337 -36.875,-13.9685 -30.27375,-3.9432 -41.31392,-7.3605 -50.45155,-15.6157 -6.66829,-6.0244 -9.3684,-13.2778 -8.70759,-23.3911 1.28488,-19.6647 17.83209,-35.0224 43.65172,-40.5142 14.02793,-2.9836 41.76493,-1.8181 64.52175,2.7113 16.72591,3.329 17.90077,3.4121 20.09842,1.4234 2.57346,-2.329 4.74808,-2.7057 5.79948,-1.0044 0.37662,0.6094 -3.26535,9.3657 -8.09327,19.4585 -6.78892,14.1924 -9.26417,18.258 -10.92348,17.9417 -1.18002,-0.2248 -2.31794,-1.6131 -2.52873,-3.085 -0.92679,-6.4716 -24.62786,-12.2705 -46.43755,-11.3617 -15.81022,0.6589 -22.40849,2.6464 -25.75831,7.7589 -4.96961,7.5845 2.41041,11.998 25.07911,14.998 35.19301,4.6573 45.06253,7.0071 54.45773,12.9653 15.33946,9.728 20.12161,26.6718 12.2526,43.4124 -2.99632,6.3744 -12.33058,15.4753 -19.75894,19.2649 -11.06834,5.6466 -36.11109,9.4951 -51.95139,7.9836 z m -982.05694,-1.06 c -23.90215,-4.5473 -37.71511,-14.6442 -45.06899,-32.944 -2.72739,-6.787 -2.85536,-8.7578 -3.24441,-49.9693 l -0.40503,-42.9038 -3.67481,-1.281 c -2.02115,-0.7046 -3.67482,-2.0697 -3.67482,-3.0337 0,-1.4481 4.56394,-1.7528 26.25,-1.7528 20.50293,0 26.25,0.3505 26.25,1.601 0,0.8805 -1.6875,2.2379 -3.75,3.0164 l -3.75,1.4155 0.007,36.671 c 0.004,21.7316 0.54115,38.5947 1.31819,41.3927 1.99956,7.2004 7.86771,13.0669 15.26936,15.2649 7.55784,2.2445 20.07722,2.4477 27.99253,0.4548 7.27666,-1.8324 14.66657,-8.7407 16.5177,-15.4413 0.86239,-3.1216 1.38392,-18.7599 1.38827,-41.6275 l 0.007,-36.6275 -3.75,-1.3072 c -2.0625,-0.719 -3.75,-2.096 -3.75,-3.06 0,-1.4481 4.56395,-1.7528 26.25,-1.7528 21.95123,0 26.25,0.2933 26.25,1.7908 0,0.9848 -1.26562,2.1857 -2.8125,2.6685 -1.54687,0.4827 -3.22576,1.505 -3.73086,2.2717 -0.5051,0.7668 -0.93365,19.1128 -0.95234,40.769 -0.0369,42.7335 -0.52876,46.8603 -7.0035,58.7565 -6.26006,11.5019 -18.45777,19.9878 -35.09077,24.4125 -10.54761,2.8059 -35.13008,3.4439 -46.84197,1.2156 z m 711.43194,4.4547 c 0,-0.6384 -0.88393,-2.0447 -1.96429,-3.125 -1.73766,-1.7377 -9.82435,-1.9643 -70.09165,-1.9643 -64.038932,0 -68.102262,-0.1304 -67.708862,-2.1731 0.23017,-1.1953 1.53705,-2.3808 2.90415,-2.6345 5.714352,-1.0606 5.610652,0.061 5.610652,-60.7204 0,-61.1423 0.0406,-60.722 -5.875002,-60.722 -2.03759,0 -2.875,-0.7251 -2.875,-2.4894 0,-2.452 1.03935,-2.4943 69.062502,-2.8125 l 69.0625,-0.3231 1.23391,-2.8125 c 0.67865,-1.5469 2.22553,-2.8125 3.4375,-2.8125 2.01296,0 2.20359,1.7301 2.20359,20 0,18.7846 -0.14369,20 -2.36449,20 -1.47964,0 -2.65801,-1.1695 -3.14881,-3.125 l -0.78433,-3.125 -44.97618,0 -44.97619,0 0,11.2726 0,11.2727 29.6875,-0.3352 29.6875,-0.3351 0.39944,-2.8125 c 0.2567,-1.8075 1.26175,-2.8125 2.8125,-2.8125 2.2803,0 2.41306,1.066 2.41306,19.375 0,16.5286 -0.28,19.375 -1.90594,19.375 -1.04826,0 -2.4406,-1.4062 -3.09406,-3.125 l -1.18813,-3.125 -29.44687,0 -29.44688,0 0.35344,14.0625 0.35344,14.0625 41.25,0.3491 c 22.6875,0.1921 42.53475,0.036 44.10501,-0.3468 1.57025,-0.383 3.48868,-2.087 4.26314,-3.7868 0.77447,-1.6997 2.44285,-3.0905 3.7075,-3.0905 2.13666,0 2.29935,1.4151 2.29935,20 0,19.1666 -0.10413,20 -2.5,20 -1.375,0 -2.5,-0.5224 -2.5,-1.1607 z m 684.29075,-0.4018 c -0.48275,-1.5469 -1.505,-3.2258 -2.27175,-3.7309 -0.76675,-0.5051 -30.82587,-0.927 -66.79812,-0.9375 -61.44638,-0.017 -65.37888,-0.1506 -64.98563,-2.1922 0.23013,-1.1953 1.537,-2.3808 2.90413,-2.6345 5.71062,-1.06 5.61062,0.013 5.61062,-59.8027 0,-36.7661 -0.4565,-57.657 -1.294,-59.2218 -0.742,-1.3865 -2.60812,-2.4179 -4.375,-2.4179 -2.24762,0 -3.081,-0.6761 -3.081,-2.5 0,-2.4259 0.83338,-2.5 28.125,-2.5 27.29163,0 28.125,0.074 28.125,2.5 0,1.5741 -0.83337,2.5 -2.25,2.5 -5.12525,0 -5.25,1.1644 -5.25,49 l 0,46 41.98363,0 41.9835,0 1.41975,-3.7614 c 2.93825,-7.7841 3.98687,-2.9869 4.32887,19.802 0.288,19.1979 0.0588,22.7094 -1.47837,22.7094 -1.00038,0 -2.21388,-1.2656 -2.69663,-2.8125 z"
         style="fill:#1d1d1b;fill-opacity:1"
         id="path5529"
         inkscape:connector-curvature="0" />
      <path
         id="path5527"
         d="m 238.14118,1558.8833 c -56.90099,-6.4175 -109.683,-33.2879 -155.638392,-79.2327 -22.34612,-22.3408 -40.601073,-47.9194 -54.425898,-76.2607 -41.1678,-84.395 -35.9548755,-169.7685 15.056113,-246.5781 14.557465,-21.9199 25.513245,-34.1354 73.981147,-82.4874 l 44.17113,-44.0656 51.26521,51.5656 c 28.19586,28.361 58.82848,59.3075 68.07249,68.7699 l 16.80727,17.2042 -39.46712,39.6708 c -21.70691,21.8188 -41.29064,42.3849 -43.51939,45.7022 -11.86135,17.6554 -16.85072,36.7719 -13.90276,53.2678 3.22762,18.0606 16.7701,37.3414 34.3167,48.8575 23.16869,15.206 52.15065,12.9917 78.9085,-6.0286 9.31749,-6.6233 144.2909,-141.4679 155.62709,-155.4787 34.247,-42.327 28.34543,-66.8719 -30.53417,-126.9935 l -15.02693,-15.3439 61.51911,-61.51915 61.51911,-61.5191 12.8229,12.5657 c 28.97125,28.3902 43.97118,40.3341 60.94789,48.5305 10.36876,5.0061 10.94152,5.1298 23.75,5.1298 12.3185,0 13.64475,-0.2542 21.58375,-4.1365 16.04112,-7.8444 28.19837,-18.7343 91.72025,-82.1585 64.287,-64.1881 69.91512,-70.5511 75.53537,-85.3977 3.37276,-8.9097 4.52638,-25.0222 2.43963,-34.0744 -4.01338,-17.4099 -18.28612,-37.2297 -34.61512,-48.0683 -20.06388,-13.3177 -43.87963,-14.2847 -67.87075,-2.7559 -7.20175,3.4608 -13.30938,9.0344 -51.62375,47.1109 l -43.45563,43.1856 -68.7305,-68.7219 -68.73051,-68.722 40.93612,-41.0425 c 22.51488,-22.5733 46.27989,-45.5553 52.81114,-51.0711 39.74585,-33.5663 88.93538,-54.4269 141.205,-59.8831 18.8575,-1.9684 55.08337,-0.7395 72.545,2.461 28.8105,5.2805 47.52225,11.3858 73.125,23.859 64.08528,31.2213 114.35578,88.1148 136.03752,153.9603 13.9929,42.4948 15.9476,89.7486 5.6743,137.1659 -9.447,43.6036 -35.51054,88.4006 -80.82182,138.9142 -33.50938,37.35685 -92.74913,95.89015 -120.0545,118.62315 -29.30413,24.3971 -53.473,38.426 -77.0855,44.7446 -11.33325,3.0328 -14.54188,3.3418 -34.375,3.3104 -20.79375,-0.033 -29.8545,-1.0492 -54.44575,-6.108 l -3.82075,-0.7858 2.294,12.9203 c 3.45062,19.4348 4.31875,52.5155 1.7705,67.465 -6.18048,36.2587 -22.13374,63.7217 -63.59055,109.4689 -16.02574,17.6843 -105.65195,107.0314 -125.33245,124.942 -38.4135,34.9593 -65.39293,54.8753 -90.625,66.8988 -36.97984,17.6216 -95.71221,26.993 -138.75,22.1391 z"
         style="fill:#1d1d1b;fill-opacity:1"
         inkscape:connector-curvature="0" />
      <path
         id="path5517"
         d="m -215.59103,1163.3839 -65.6061,-65.631 23.73166,-23.7236 c 13.0524,-13.048 203.91121,-204.11385 424.13066,-424.59065 l 400.39901,-400.867 66.16537,66.1566 66.16536,66.1565 -424.06369,424.065 c -233.235025,233.23585 -424.34549,424.06515 -424.68993,424.06515 -0.34443,0 -30.14898,-29.534 -66.23234,-65.631 z"
         style="fill:#1d1d1b;fill-opacity:1"
         inkscape:connector-curvature="0" />
      <path
         d="M 219.70054,176.19925 74.388918,30.883551 l 68.751422,-68.7429 68.75143,-68.742901 26.55658,26.556601 26.55659,26.5566 -38.73591,38.751 -38.73591,38.7511 31.23272,31.2515 31.23274,31.2515 34.69476,-34.6782 34.69478,-34.6782 25.62938,25.6065 c 14.09617,14.0836 25.48749,26.0218 25.31404,26.5294 -0.17345,0.5076 -15.63415,16.2745 -34.3571,35.037699 l -34.04175,34.1148 34.97965,34.963 34.97965,34.9629 38.74793,-38.7328 38.74792,-38.7328 26.88001,26.8582 26.88002,26.8582 -68.43659,68.445 c -37.64011,37.6448 -68.72065,68.4451 -69.06785,68.4451 -0.3472,0 -66.0215,-65.392 -145.94289,-145.3156 z m -157.502862,157.4971 -145.314475,-145.3185 29.38275,-29.3628 29.38275,-29.3628 119.368735,119.3639 119.368752,119.3638 39.37564,-39.3607 39.37562,-39.3608 26.25534,26.233 26.25533,26.233 -68.4367,68.4452 c -37.6402,37.6449 -68.72079,68.4452 -69.06799,68.4452 -0.3472,0 -66.02279,-65.3933 -145.945752,-145.3185 z m -158.126913,159.3301 c -79.573775,-79.6061 -144.679585,-145.2825 -144.679585,-145.9475 0,-0.665 13.08087,-14.281 29.06861,-30.2579 l 29.06861,-29.0489 119.364053,119.369 119.364065,119.3689 39.38901,-39.3745 39.389022,-39.3746 26.2331,26.2554 26.2331,26.2554 -68.73802,68.7466 c -37.805912,37.8106 -69.024762,68.7465 -69.375212,68.7465 -0.35044,0 -65.74299,-65.1323 -145.316753,-144.7384 z m -104.270545,138.7049 14.74495,-14.7834 -24.7645,-17.9678 c -34.77615,-25.2317 -67.59417,-49.8836 -82.26449,-61.7947 -16.85861,-13.6878 -17.25096,-13.8085 -7.89769,-2.4296 12.67314,15.4176 27.6679,35.0912 48.50034,63.634 31.24771,42.8128 35.2331,48.125 36.10507,48.125 0.45725,0 7.46659,-6.6526 15.57632,-14.7835 z m 11.76591,201.432 c -9.35529,-14.3129 -37.53156,-57.5235 -62.61394,-96.0235 -25.08239,-38.5 -68.85396,-105.6814 -97.27017,-149.2919 -28.41622,-43.6106 -51.81699,-79.8918 -52.00174,-80.625 -0.18474,-0.7332 16.40901,-18.0335 36.875,-38.445 l 37.2109,-37.112 46.875,30.6259 c 25.78125,16.8442 54.46875,35.5772 63.75,41.6288 83.4564,54.4159 115.78671,75.4786 173.749998,113.1956 36.7812495,23.9337 67.130662,43.7358 67.44315,44.0046 0.758437,0.6523 -60.239663,61.644 -61.650525,61.644 -0.605825,0 -21.303488,-14.3697 -45.9948,-31.9325 -24.691313,-17.5629 -45.574943,-32.194 -46.408063,-32.5134 -0.83311,-0.3195 -11.82849,9.7445 -24.43415,22.3643 l -22.91939,22.9453 32.35674,45.5328 c 17.7962,25.043 32.71896,46.1188 33.16167,46.8352 0.44273,0.7163 -13.12818,15.2272 -30.15756,32.2463 l -30.96251,30.944 -17.00961,-26.0235 z m -163.33096,162.0755 c -20.58879,-4.3488 -38.27002,-13.9993 -63.84399,-34.8461 -14.89663,-12.1432 -129.70713,-126.422 -143.29147,-142.6279 -27.77851,-33.1394 -39.20853,-57.718 -39.20853,-84.3123 0,-13.4673 2.15302,-22.6763 8.4846,-36.2907 6.1535,-13.2316 16.79895,-27.5166 30.75659,-41.272 52.04551,-51.2914 99.16738,-54.0017 154.4996,-8.8864 12.13635,9.8954 36.25921,33.1788 36.25921,34.9975 0,0.7751 -12.82705,14.2272 -28.50455,29.8936 l -28.50455,28.4844 -10.95155,-12.2446 c -13.8064,-15.4364 -28.0031,-27.9343 -37.66435,-33.1574 -6.56591,-3.5496 -8.68047,-4.0567 -16.9782,-4.0709 -8.86272,-0.015 -9.93343,0.2858 -16.4885,4.6349 -17.1708,11.3924 -18.21514,28.7884 -3.00765,50.0998 6.33058,8.8715 150.65165,153.304 161.07505,161.1994 15.7687,11.9443 30.51691,14.9015 40.70195,8.1614 11.03352,-7.3016 16.40212,-19.4396 13.89726,-31.4205 -2.9926,-14.3138 -14.13111,-29.4524 -37.73221,-51.2829 -7.33849,-6.7879 -13.3427,-12.982 -13.3427,-13.7647 0,-1.2854 55.32656,-55.8985 57.49422,-56.7529 1.28342,-0.5059 22.4179,20.8971 32.44717,32.8593 16.53301,19.7195 28.61634,40.0367 33.08192,55.625 4.80195,16.7625 4.77853,35.6965 -0.0626,50.625 -11.69396,36.0602 -54.32733,79.5482 -89.3689,91.1603 -11.57518,3.8358 -29.77284,5.2957 -39.74778,3.1887 z"
         style="fill:#1d1d1b;fill-opacity:1"
         id="path5503"
         inkscape:connector-curvature="0" />
    </g>
  </g>
</svg>
