<?xml version="1.0" encoding="UTF-8" standalone="no"?>
<!-- Created with Inkscape (http://www.inkscape.org/) -->

<svg
   xmlns:dc="http://purl.org/dc/elements/1.1/"
   xmlns:cc="http://creativecommons.org/ns#"
   xmlns:rdf="http://www.w3.org/1999/02/22-rdf-syntax-ns#"
   xmlns:svg="http://www.w3.org/2000/svg"
   xmlns="http://www.w3.org/2000/svg"
   xmlns:sodipodi="http://sodipodi.sourceforge.net/DTD/sodipodi-0.dtd"
   xmlns:inkscape="http://www.inkscape.org/namespaces/inkscape"
   width="120.55526mm"
   height="59.476772mm"
   viewBox="0 0 427.16431 210.74447"
   id="svg4193"
   version="1.1"
   inkscape:version="0.91 r13725"
   sodipodi:docname="HWD logo.svg">
  <title
     id="title4909">HWD HD logo</title>
  <defs
     id="defs4195" />
  <sodipodi:namedview
     id="base"
     pagecolor="#ffffff"
     bordercolor="#666666"
     borderopacity="1.0"
     inkscape:pageopacity="0.0"
     inkscape:pageshadow="2"
     inkscape:zoom="0.98994949"
     inkscape:cx="229.62022"
     inkscape:cy="97.060028"
     inkscape:document-units="px"
     inkscape:current-layer="layer1"
     showgrid="false"
     fit-margin-top="0"
     fit-margin-left="0"
     fit-margin-right="0"
     fit-margin-bottom="0"
     inkscape:window-width="1366"
     inkscape:window-height="705"
     inkscape:window-x="-8"
     inkscape:window-y="-8"
     inkscape:window-maximized="1" />
  <metadata
     id="metadata4198">
    <rdf:RDF>
      <cc:Work
         rdf:about="">
        <dc:format>image/svg+xml</dc:format>
        <dc:type
           rdf:resource="http://purl.org/dc/dcmitype/StillImage" />
        <dc:title>HWD HD logo</dc:title>
        <cc:license
           rdf:resource="http://creativecommons.org/licenses/by-sa/3.0/" />
        <dc:date>16/11/2016</dc:date>
        <dc:publisher>
          <cc:Agent>
            <dc:title>CMetalCore</dc:title>
          </cc:Agent>
        </dc:publisher>
        <dc:creator>
          <cc:Agent>
            <dc:title>CMetalCore</dc:title>
          </cc:Agent>
        </dc:creator>
      </cc:Work>
      <cc:License
         rdf:about="http://creativecommons.org/licenses/by-sa/3.0/">
        <cc:permits
           rdf:resource="http://creativecommons.org/ns#Reproduction" />
        <cc:permits
           rdf:resource="http://creativecommons.org/ns#Distribution" />
        <cc:requires
           rdf:resource="http://creativecommons.org/ns#Notice" />
        <cc:requires
           rdf:resource="http://creativecommons.org/ns#Attribution" />
        <cc:permits
           rdf:resource="http://creativecommons.org/ns#DerivativeWorks" />
        <cc:requires
           rdf:resource="http://creativecommons.org/ns#ShareAlike" />
      </cc:License>
    </rdf:RDF>
  </metadata>
  <g
     inkscape:label="Capa 1"
     inkscape:groupmode="layer"
     id="layer1"
     transform="translate(-48.330497,-56.018806)">
    <g
       id="g4916">
      <path
         inkscape:connector-curvature="0"
         id="path4820"
         d="m 124.63291,264.63653 c -0.24693,-1.28073 -2.70916,-18.44057 -5.47162,-38.13297 l -5.02265,-35.80434 -32.610883,-5.87192 c -17.935985,-3.22954 -32.87237,-6.10513 -33.191965,-6.39018 -0.319594,-0.28504 13.869544,-7.73635 31.531419,-16.55847 l 32.112499,-16.0402 0,-3.06679 c 0,-1.68673 -1.27882,-21.71335 -2.84181,-44.503599 -1.56299,-22.790244 -2.72147,-41.797817 -2.57439,-42.239048 0.14707,-0.441238 12.52762,13.479425 27.51232,30.9348 l 27.24491,31.737047 9.27095,-5.70937 c 5.09902,-3.14015 26.96358,-16.640616 48.5879,-30.001031 21.62433,-13.36042 39.45352,-24.155113 39.62043,-23.988203 0.1669,0.166903 -14.54183,22.566978 -32.68607,49.777944 -18.14424,27.21097 -33.08139,49.77981 -33.19364,50.15299 -0.11226,0.37317 11.50203,13.46634 25.80954,29.09594 14.3075,15.62961 25.69496,28.52111 25.30547,28.64778 -0.3895,0.12669 -19.50652,-2.0793 -42.48228,-4.9022 -22.97576,-2.82288 -41.79932,-5.07971 -41.83014,-5.01518 -0.80854,1.69325 -32.85724,57.76614 -33.58653,58.76351 -0.97101,1.3279 -1.09004,1.25772 -1.50346,-0.88651 z"
         style="fill:#009dd5;fill-opacity:1" />
      <path
         inkscape:connector-curvature="0"
         d="m 180.00184,173.74092 c -0.88532,-1.48719 -9.37771,-22.75708 -9.37771,-23.48726 0,-0.44891 1.00658,-0.81621 2.23683,-0.81621 2.64935,0 3.58255,1.3768 7.72857,11.40225 3.2884,7.95164 3.65341,11.42878 1.33023,12.67212 -0.85687,0.45858 -1.71993,0.56167 -1.91792,0.2291 z m 7.25191,3.37751 c 4.44482,-2.90496 3.8609,-10.59543 -1.70612,-22.47001 -3.74199,-7.98178 -7.17823,-11.63775 -10.93826,-11.63775 -2.24095,0 -10.97861,2.8346 -12.2327,3.96842 -0.5085,0.45973 2.94784,9.38144 12.70369,32.79152 l 1.09086,2.61763 4.65742,-2.05726 c 2.56159,-1.1315 5.45288,-2.57714 6.42511,-3.21255 z m -33.93941,14.76754 c 1.1254,-0.51277 2.04617,-1.25417 2.04617,-1.64757 0,-0.79984 -5.30126,-22.04424 -6.0937,-24.42002 -0.27866,-0.83543 2.0938,2.99986 5.27213,8.52288 8.51398,14.79482 7.68926,13.77611 10.26648,12.68123 1.212,-0.51489 2.45709,-1.13904 2.76686,-1.38699 0.53111,-0.4251 -8.34439,-35.81183 -9.19561,-36.66306 -0.21916,-0.21917 -1.29687,0.0109 -2.39491,0.51115 l -1.99641,0.90962 2.68674,9.36315 c 1.47771,5.14973 2.9133,10.2669 3.1902,11.3715 0.27692,1.10461 -2.25487,-2.59063 -5.62616,-8.21165 -6.12072,-10.20514 -6.13285,-10.21867 -8.32691,-9.28676 -1.20849,0.51329 -2.49857,1.18399 -2.86683,1.49041 -0.36826,0.30644 0.62588,5.48144 2.20921,11.5 1.58333,6.01856 2.8696,11.21216 2.8584,11.54132 -0.0113,0.32917 -2.35836,-3.89962 -5.2159,-9.39733 -2.85754,-5.49769 -5.46929,-10.26157 -5.8039,-10.58638 -0.3346,-0.32482 -1.81523,-0.0784 -3.29029,0.54756 l -2.68191,1.13813 1.57168,2.6198 c 0.86443,1.44089 4.55536,8.04239 8.20205,14.67002 9.72542,17.67527 8.68172,16.43746 12.42261,14.73299 z m -21.58496,8.96578 c 0.1502,0 -0.92574,-2.80167 -2.39098,-6.22595 -4.12253,-9.6344 -4.10993,-9.54156 -1.42264,-10.47835 l 2.33171,-0.81284 2.98964,7.55355 c 1.6443,4.15445 3.33611,7.55354 3.75958,7.55354 1.69686,0 5.61713,-2.5789 5.27262,-3.46853 -1.45091,-3.74663 -13.66608,-33.1414 -13.8649,-33.36471 -0.56556,-0.63524 -5.97949,1.68353 -5.95944,2.55241 0.0119,0.51804 1.09647,3.462 2.41004,6.54215 2.90012,6.80039 2.91544,7.15691 0.35742,8.32241 -1.7975,0.819 -2.10967,0.71841 -2.71623,-0.87523 -1.19944,-3.15129 -5.05249,-12.23398 -5.30451,-12.50417 -0.1971,-0.21131 -5.04339,1.99508 -5.83063,2.65453 -0.17565,0.14714 5.39542,13.90426 13.03377,32.18543 l 1.17967,2.82332 2.94089,-1.22877 c 1.61749,-0.67584 3.06378,-1.22879 3.21399,-1.22879 z"
         style="fill:#ffffff"
         id="path4812" />
      <path
         inkscape:connector-curvature="0"
         d="m 246.70076,266.21707 c -0.30904,-0.30907 -0.5619,-9.17778 -0.5619,-19.70839 l 0,-19.14644 4.01674,0 4.01675,0 0,16.06697 0,16.06698 4.86628,0 4.86628,0 -0.24703,3.41423 -0.24703,3.41423 -8.07409,0.22712 c -4.44076,0.125 -8.32695,-0.0257 -8.636,-0.3347 z m -11.89949,-20.17696 c -0.31738,-2.54061 -0.60756,-5.49291 -0.64485,-6.5607 -0.12327,-3.53056 -0.66745,-1.36287 -1.24365,4.95398 -0.52612,5.7678 -0.4563,6.22597 0.94882,6.22597 1.3778,0 1.46388,-0.42314 0.93968,-4.61925 z m -10.64451,20.06076 c -0.34965,-0.56575 3.75739,-32.60341 4.73435,-36.93109 0.37101,-1.64344 0.8743,-1.80754 5.54389,-1.80754 l 5.13585,0 0.47631,3.01256 c 0.77562,4.90555 4.48501,34.12998 4.48501,35.33513 0,0.80759 -0.92732,1.04165 -3.41423,0.8617 l -3.41423,-0.24698 -0.75565,-4.2571 c -0.73264,-4.12741 -0.83047,-4.24971 -3.2134,-4.01674 -2.08222,0.2036 -2.4914,0.60855 -2.67802,2.6504 -0.4991,5.46046 -0.85186,6.02512 -3.76436,6.02512 -1.51195,0 -2.92293,-0.28143 -3.13552,-0.62546 z m -21.66648,0.0899 c -0.29457,-0.29454 -0.53557,-9.15143 -0.53557,-19.68204 l 0,-19.14644 3.84326,0 3.84327,0 2.91547,8.636 2.91548,8.63599 0.0697,-8.63599 0.0697,-8.636 3.21339,0 3.2134,0 0,19.68205 0,19.68204 -2.78346,0 c -3.34576,0 -3.48956,-0.22996 -7.70699,-12.32305 l -3.12676,-8.96568 -0.0199,10.64436 -0.0199,10.64437 -2.67782,0 c -1.47282,0 -2.91884,-0.24101 -3.2134,-0.53561 z M 191.22945,249.2535 c -0.21451,-0.77327 -0.66767,-3.5749 -1.00704,-6.22597 l -0.61703,-4.82009 -0.58342,4.01674 c -1.04459,7.19192 -0.90654,8.43518 0.93666,8.43518 1.19475,0 1.55139,-0.39454 1.27083,-1.40586 z m -11.24196,16.87147 c -0.35026,-0.56671 3.04433,-26.60364 4.71333,-36.15185 l 0.45639,-2.61088 5.14895,0 5.14895,0 0.43816,2.61088 c 0.79089,4.71277 4.45474,33.76436 4.45474,35.32267 0,1.2948 -0.51132,1.48587 -3.41423,1.27584 l -3.41423,-0.24698 -0.71549,-4.21758 c -0.66672,-3.93004 -0.87109,-4.21758 -2.99726,-4.21758 -2.38989,0 -2.81788,0.78208 -3.2971,6.02512 -0.19611,2.14551 -0.5427,2.43691 -3.15821,2.6549 -1.61585,0.13471 -3.12966,-0.0654 -3.364,-0.44454 z m -16.8466,-1.47758 c -3.17534,-3.17535 -4.13135,-7.0462 -4.14917,-16.79975 -0.0186,-10.18555 1.22218,-15.47441 4.43803,-18.91698 1.8781,-2.01052 2.82276,-2.37177 6.20212,-2.37177 3.23122,0 4.38587,0.39933 6.0941,2.10754 2.19354,2.19354 3.72282,6.35177 3.7305,10.14352 0.004,2.11282 -0.16884,2.20921 -3.96824,2.20921 l -3.97273,0 -0.24484,-3.80868 c -0.17934,-2.78966 -0.60264,-3.87657 -1.58208,-4.06243 -0.77125,-0.14634 -1.54956,0.41527 -1.83892,1.32693 -0.68219,2.14941 -0.73542,21.21475 -0.0651,23.32666 1.25384,3.95055 4.44628,0.51517 4.44628,-4.78455 0,-2.25882 0.15171,-2.35773 3.61507,-2.35773 4.13029,0 4.22951,0.26922 2.7101,7.35398 -1.29541,6.04041 -4.16864,8.71299 -9.36719,8.71299 -3.19837,0 -4.37264,-0.40367 -6.04789,-2.07894 z"
         style="fill:#7b7c7e;fill-opacity:1"
         id="path4798" />
      <path
         sodipodi:nodetypes="sssssscscssssccsssccccssssscccssscccssssssssccsscccccccsscccssssscssssscsscccsscccccccccsssscccccccccsscsssccccssssscccscccssscccccccccccccsc"
         inkscape:connector-curvature="0"
         d="m 466.3156,258.2197 c 1.24298,-1.4977 2.00584,-13.75311 1.19335,-19.17118 -0.36028,-2.40252 -1.07916,-3.93335 -2.10492,-4.48231 -1.51138,-0.80887 -1.55779,-0.44996 -1.55779,12.04813 0,7.08502 0.31724,12.88185 0.70499,12.88185 0.38773,0 1.18171,-0.57443 1.76437,-1.27649 z m -10.90143,7.59936 c -0.2394,-0.62392 -0.33804,-9.62232 -0.21918,-19.99643 l 0.21609,-18.86206 6.20223,0.14563 c 7.34197,0.17239 10.00993,1.27937 12.23425,5.07613 1.45572,2.48485 1.64723,4.16593 1.64723,14.46029 0,16.68188 -1.58972,19.07322 -13.2089,19.86956 -5.10176,0.34969 -6.52669,0.20598 -6.87172,-0.69312 z m -12.13926,-7.59364 c 0.99345,-2.58884 0.52975,-22.465 -0.55883,-23.95372 -0.99401,-1.35939 -1.10471,-1.36095 -2.2092,-0.0311 -0.88434,1.06478 -1.16276,3.91953 -1.16276,11.92193 0,5.78706 0.25978,11.15452 0.5773,11.92779 0.71944,1.752 2.70236,1.83189 3.35349,0.13509 z m -7.82118,6.85006 c -3.08239,-2.42464 -4.54477,-8.35579 -4.54477,-18.43286 0,-14.8138 2.75262,-20.08373 10.49022,-20.08373 4.65607,0 8.13495,2.52029 9.73921,7.05559 1.40727,3.9784 1.41741,22.05019 0.0147,26.01198 -1.77592,5.01559 -4.53547,7.09987 -9.40004,7.09987 -3.02155,0 -4.78959,-0.46338 -6.29923,-1.65085 z m -16.27927,-6.85006 c 0.99345,-2.58884 0.52975,-22.465 -0.55882,-23.95372 -0.99424,-1.35969 -1.10449,-1.36121 -2.20921,-0.0304 -0.88429,1.06524 -1.16276,3.92044 -1.16276,11.9219 0,5.78668 0.25978,11.15388 0.5773,11.92709 0.71945,1.75207 2.70237,1.83195 3.35349,0.13515 z m -8.18075,6.13572 c -3.08847,-3.08846 -4.1852,-7.73162 -4.1852,-17.71852 0,-9.98696 1.09673,-14.63008 4.1852,-17.71856 1.89736,-1.89734 3.06052,-2.36517 5.88065,-2.36517 5.05189,0 7.33383,1.34588 9.40349,5.54615 1.60764,3.26261 1.81939,4.90786 1.81939,14.1359 0,15.96363 -2.37398,20.48539 -10.75513,20.48539 -3.33787,0 -4.36641,-0.38323 -6.3484,-2.36519 z m -51.01014,1.86666 c -0.31493,-0.31498 -0.5754,-4.21784 -0.57882,-8.67308 -0.006,-6.96258 -0.4452,-9.65997 -3.1314,-19.20312 -3.41983,-12.14957 -3.42879,-12.09772 2.0111,-11.6454 l 3.05919,0.25437 1.67698,6.78828 1.67698,6.78829 2.02529,-6.78829 2.02529,-6.78828 6.7791,0 6.77911,0 0.85644,8.43515 c 0.9555,9.41071 1.3378,9.25131 2.89022,-1.20502 l 1.07343,-7.23013 3.61507,0 3.61507,0 1.07343,7.23013 c 1.52833,10.29409 1.87245,10.55459 2.96989,2.24816 0.53715,-4.0656 1.19145,-7.9518 1.45401,-8.63599 0.48818,-1.27219 4.92376,-1.77806 5.62453,-0.64147 0.20432,0.33139 -0.84522,9.09792 -2.3323,19.48122 -1.48708,10.38324 -2.71743,19.14976 -2.73412,19.48119 -0.0167,0.33137 -1.61792,0.60252 -3.55831,0.60252 -4.12499,0 -3.87094,0.57943 -5.3994,-12.31559 -1.12795,-9.51623 -1.60095,-9.34988 -3.03869,1.06871 -1.64357,11.91006 -1.32906,11.24688 -5.33335,11.24688 -4.15476,0 -3.60888,1.8198 -6.02437,-20.08371 -0.90143,-8.17409 -1.33162,-18.96191 -1.44693,-19.62467 -0.1153,-0.66276 -2.04011,6.50999 -3.78642,11.59117 -2.76985,8.05933 -3.22639,10.41771 -3.57679,18.47703 l -0.40168,9.2385 -3.64497,0.23786 c -2.00474,0.13085 -3.90265,-0.0199 -4.21758,-0.33471 z m -21.90181,-0.52231 c -0.21544,-0.56144 -0.29447,-9.50875 -0.17562,-19.88286 l 0.2161,-18.86206 3.8159,-0.24486 3.81591,-0.24484 0,16.51265 0,16.51267 4.82009,0 4.82009,0 0,3.61507 0,3.61507 -8.46037,0 c -6.10068,0 -8.56963,-0.28471 -8.8521,-1.02084 z m -18.47701,0 c -0.21544,-0.56144 -0.29447,-9.50875 -0.17562,-19.88286 l 0.2161,-18.86206 4.01674,0 4.01674,0 0.21748,16.2678 0.21746,16.26782 4.40179,0 4.40178,0 0,3.61507 0,3.61507 -8.46037,0 c -6.10068,0 -8.56963,-0.28471 -8.8521,-1.02084 z m -12.0957,-7.48007 c 0.99345,-2.58884 0.52976,-22.465 -0.55882,-23.95372 -0.99402,-1.35939 -1.10472,-1.36095 -2.20921,-0.0311 -0.88434,1.06478 -1.16276,3.91953 -1.16276,11.92193 0,5.78706 0.25979,11.15452 0.5773,11.92779 0.71945,1.752 2.70237,1.83189 3.35349,0.13509 z m -7.82118,6.85006 c -3.08239,-2.42464 -4.54476,-8.35579 -4.54476,-18.43286 0,-14.8138 2.75261,-20.08373 10.49022,-20.08373 4.65607,0 8.13495,2.52029 9.73921,7.05559 1.40727,3.9784 1.4174,22.05019 0.0146,26.01198 -1.77592,5.01559 -4.53547,7.09987 -9.40004,7.09987 -3.02154,0 -4.78958,-0.46338 -6.29922,-1.65085 z m -27.48066,1.52267 c -0.54005,-10.21835 -0.29448,-10.40141 -0.17562,-20.77552 l 0.21609,-18.86206 3.81591,-0.24486 3.8159,-0.24484 0,8.07749 c 0,8.04877 0.007,8.0775 1.97928,8.0775 1.95242,0 1.9824,-0.10631 2.20921,-7.83265 l 0.22992,-7.83264 3.81591,-0.24486 3.8159,-0.24484 0,20.12773 0,20.12773 -4.01674,0 -4.01674,0 0,-8.43516 0,-8.43516 -2.00837,0 -2.00837,0 0,8.43516 0,8.43516 -3.64028,0 c -2.20276,0 0,0 -4.032,-0.12818 z"
         style="fill:#000000"
         id="path4772" />
    </g>
  </g>
</svg>
