<?xml version="1.0" encoding="utf-8"?>
<!-- Generator: Adobe Illustrator 23.0.1, SVG Export Plug-In . SVG Version: 6.00 Build 0)  -->
<svg version="1.1" id="Livello_1" xmlns="http://www.w3.org/2000/svg" xmlns:xlink="http://www.w3.org/1999/xlink" x="0px" y="0px"
	 viewBox="0 0 405.695 150.497" enable-background="new 0 0 405.695 150.497" xml:space="preserve">
<g>
	<path fill="#FD6664" d="M381.561,0.045h10.768c0,21.738,0,43.484,0,65.239h-10.768C381.557,43.533,381.557,21.787,381.561,0.045z"
		/>
	<g>
		<g>
			<path d="M405.695,116.63c-4.416,0-8.83,0-13.245,0c0-4.415,0-8.831,0-13.245h-10.768c-0.002,4.415-0.002,8.83-0.002,13.245
				c-4.416,0-8.832,0-13.246,0v10.768c4.415,0.002,8.83,0.002,13.246,0.002c0,4.415,0.001,8.83,0.002,13.246h10.768
				c0-4.416,0-8.831,0-13.246c4.415,0,8.83-0.001,13.245-0.002V116.63z"/>
			<path d="M339.75,95.541c3.208-1.445,6.95-1.022,9.754,1.102c3.496,2.755,4.978,7.176,6.163,11.293
				c2.109,8.529,2.413,17.404,0.893,26.058c-0.399,2.534-1.9,5.485-4.719,5.834c-2.107,0.231-4.002-1.291-4.232-3.399
				c-0.002-0.016-0.003-0.031-0.005-0.047c-0.5-5.84,1.621-11.705,0.298-17.501c-0.361-1.9-2.28-3.56-4.25-3.097
				c-2.534,0.823-4.212,3.167-5.453,5.409c-2.591,4.909-4.079,10.299-5.758,15.562c-1.153,3.8-3.015,7.797-6.67,9.78
				c-5.992,3.249-14.505,2.572-18.818-3.11c-3.724-5.067-6.245-10.901-9.704-16.139c-0.925-1.178-2.204-2.971-3.946-2.337
				c-1.704,0.462-2.141,2.47-2.141,4.009c0.26,5.738,3.034,10.951,3.971,16.557c0.545,2.28-0.925,5.346-3.623,4.947
				c-2.534,0.291-4.054-2.147-4.915-4.155c-3.8-9.298-5.853-19.679-3.705-29.636c0.988-4.592,2.534-9.387,6.093-12.668
				s9.589-3.99,13.478-0.868c5.548,4.313,7.886,11.293,12.56,16.348c2.578,2.857,7.556,2.996,9.868-0.253
				C329.939,111.521,330.268,99.677,339.75,95.541z"/>
		</g>
		<g>
			<path d="M216.861,128.561c0,1.812-0.227,3.467-0.679,4.966c-0.453,1.499-1.133,2.78-2.037,3.841
				c-0.906,1.062-2.03,1.889-3.373,2.483c-1.343,0.593-2.904,0.89-4.684,0.89c-1.187,0-2.304-0.258-3.349-0.773
				c-1.047-0.515-1.835-1.101-2.366-1.757v11.711h-5.809v-33.166h5.809v2.436c0.156-0.312,0.405-0.632,0.75-0.961
				c0.343-0.328,0.764-0.632,1.265-0.913c0.499-0.281,1.061-0.507,1.686-0.679c0.624-0.171,1.296-0.258,2.014-0.258
				c1.78,0,3.341,0.297,4.684,0.89c1.342,0.594,2.467,1.422,3.373,2.483c0.906,1.062,1.585,2.342,2.037,3.841
				C216.635,125.095,216.861,126.75,216.861,128.561z M210.772,128.561c0-2.342-0.531-4.13-1.592-5.364
				c-1.062-1.233-2.358-1.85-3.888-1.85s-2.819,0.617-3.865,1.85c-1.047,1.234-1.569,3.021-1.569,5.364s0.522,4.13,1.569,5.364
				c1.046,1.234,2.334,1.85,3.865,1.85c1.53,0,2.826-0.617,3.888-1.85C210.241,132.692,210.772,130.904,210.772,128.561z"/>
			<path d="M220.451,128.561c0-1.717,0.265-3.318,0.796-4.801c0.531-1.483,1.311-2.771,2.342-3.865
				c1.031-1.093,2.287-1.951,3.771-2.576c1.483-0.624,3.178-0.937,5.083-0.937c1.905,0,3.599,0.313,5.083,0.937
				c1.483,0.625,2.741,1.483,3.771,2.576c1.031,1.094,1.811,2.382,2.342,3.865c0.531,1.483,0.796,3.085,0.796,4.801
				c0,1.718-0.266,3.319-0.796,4.801c-0.532,1.484-1.311,2.772-2.342,3.865c-1.031,1.093-2.288,1.952-3.771,2.576
				c-1.483,0.624-3.178,0.937-5.083,0.937c-1.905,0-3.599-0.313-5.083-0.937c-1.483-0.624-2.741-1.483-3.771-2.576
				c-1.031-1.093-1.812-2.381-2.342-3.865C220.715,131.88,220.451,130.28,220.451,128.561z M226.54,128.561
				c0,0.969,0.133,1.89,0.398,2.764c0.265,0.875,0.648,1.64,1.148,2.295c0.499,0.656,1.116,1.179,1.85,1.569
				c0.734,0.391,1.569,0.586,2.506,0.586c0.937,0,1.772-0.195,2.507-0.586c0.734-0.39,1.35-0.914,1.85-1.569
				c0.499-0.656,0.882-1.421,1.148-2.295c0.265-0.874,0.398-1.795,0.398-2.764c0-0.967-0.133-1.889-0.398-2.764
				c-0.266-0.874-0.649-1.64-1.148-2.295c-0.5-0.656-1.117-1.178-1.85-1.569c-0.734-0.39-1.569-0.586-2.507-0.586
				s-1.772,0.195-2.506,0.586c-0.734,0.391-1.351,0.914-1.85,1.569c-0.5,0.656-0.883,1.422-1.148,2.295
				C226.672,126.672,226.54,127.594,226.54,128.561z"/>
			<path d="M248.655,140.366v-23.61h5.809v3.841c0.844-1.406,1.881-2.459,3.115-3.162c1.234-0.703,2.522-1.054,3.865-1.054
				c0.25,0,0.539,0.016,0.867,0.047c0.328,0.032,0.632,0.078,0.914,0.14v5.668c-0.719-0.437-1.53-0.656-2.436-0.656
				c-0.843,0-1.648,0.187-2.412,0.562c-0.766,0.374-1.437,0.968-2.014,1.78c-0.578,0.813-1.038,1.882-1.382,3.209
				c-0.344,1.328-0.515,2.944-0.515,4.848v8.385L248.655,140.366L248.655,140.366z"/>
		</g>
	</g>
	<g>
		<path fill="#FD6664" d="M43.691,0.735v13.953H16.338v9.087h21.478v13.953H16.338v13.31H44.61v13.953H0V0.735H43.691z"/>
		<path fill="#FD6664" d="M68.39,17.99c3.61,0,6.669,0.704,9.179,2.111c2.509,1.408,4.527,3.274,6.058,5.599l-8.168,7.527
			c-2.019-2.693-4.346-4.039-6.976-4.039c-0.858,0-1.592,0.229-2.203,0.689c-0.613,0.459-0.919,1.087-0.919,1.881
			c0,0.858,0.413,1.622,1.239,2.295c0.827,0.674,2.217,1.346,4.176,2.019c2.264,0.735,4.314,1.485,6.15,2.249
			c1.836,0.766,3.396,1.652,4.681,2.661s2.279,2.265,2.983,3.763c0.702,1.5,1.056,3.351,1.056,5.554c0,2.081-0.382,4.054-1.147,5.92
			c-0.766,1.867-1.881,3.504-3.351,4.911c-1.468,1.408-3.259,2.524-5.37,3.351c-2.111,0.825-4.483,1.239-7.114,1.239
			c-2.632,0-4.988-0.337-7.068-1.009c-2.081-0.673-3.901-1.591-5.462-2.753c-1.561-1.161-2.923-2.509-4.084-4.039
			c-1.164-1.529-2.143-3.121-2.937-4.773l11.106-5.966c0.794,2.143,1.866,3.87,3.213,5.186c1.345,1.316,3.089,1.973,5.232,1.973
			c1.039,0,1.973-0.244,2.799-0.733c0.827-0.49,1.239-1.285,1.239-2.387c0-0.794-0.276-1.484-0.827-2.065
			c-0.551-0.581-1.301-1.101-2.248-1.56c-0.95-0.459-2.019-0.886-3.213-1.285c-1.193-0.397-2.432-0.872-3.717-1.423
			c-1.408-0.551-2.739-1.223-3.992-2.02c-1.255-0.794-2.341-1.729-3.259-2.799c-0.919-1.069-1.652-2.309-2.203-3.717
			c-0.551-1.407-0.827-3.028-0.827-4.865c0-1.774,0.367-3.471,1.101-5.094c0.735-1.621,1.789-3.059,3.167-4.314
			c1.376-1.253,3.044-2.249,5.003-2.983C63.648,18.358,65.881,17.99,68.39,17.99z"/>
		<path fill="#FD6664" d="M120.779,64.436c-0.917,0.307-2.004,0.596-3.259,0.872c-1.255,0.276-2.616,0.413-4.084,0.413
			c-2.632,0-5.064-0.354-7.298-1.056c-2.234-0.702-4.176-1.758-5.828-3.167c-1.652-1.407-2.953-3.181-3.901-5.323
			c-0.948-2.142-1.423-4.649-1.423-7.527V30.291h-6.61V18.725h6.61V9.179L109.672,0v18.725h11.658v11.566h-11.658v15.513
			c0,4.468,1.744,6.7,5.232,6.7c1.161,0,2.187-0.137,3.075-0.413c0.886-0.276,1.819-0.627,2.799-1.056v13.402H120.779z"/>
		<path fill="#FD6664" d="M129.179,64.987V18.725h15.053v5.048c1.223-1.774,2.983-3.181,5.278-4.223
			c2.295-1.039,4.819-1.561,7.572-1.561c0.856,0,1.607,0.062,2.249,0.184c0.643,0.123,1.208,0.246,1.699,0.367v14.319
			c-0.674-0.428-1.577-0.749-2.708-0.964c-1.132-0.214-2.188-0.321-3.167-0.321c-1.346,0-2.661,0.307-3.947,0.919
			c-1.285,0.613-2.449,1.576-3.488,2.891c-1.04,1.316-1.881,3.06-2.524,5.232c-0.643,2.173-0.964,4.819-0.964,7.94v16.43h-15.053
			V64.987z"/>
		<path fill="#FD6664" d="M179.355,45.711c0.489,2.753,1.59,4.851,3.304,6.288c1.712,1.438,4.039,2.156,6.976,2.156
			c3.916,0,6.944-1.652,9.087-4.956l11.566,4.223c-1.959,3.611-4.667,6.563-8.123,8.858c-3.458,2.295-7.971,3.443-13.539,3.443
			c-4.162,0-7.725-0.735-10.693-2.203c-2.968-1.469-5.386-3.351-7.251-5.646c-1.867-2.295-3.229-4.849-4.084-7.664
			c-0.858-2.813-1.285-5.599-1.285-8.352c0-2.753,0.473-5.538,1.423-8.354c0.948-2.813,2.401-5.37,4.36-7.664
			c1.958-2.295,4.406-4.176,7.343-5.646c2.937-1.468,6.393-2.203,10.372-2.203c4.161,0,7.679,0.735,10.556,2.203
			c2.875,1.469,5.2,3.336,6.976,5.599c1.774,2.265,3.044,4.742,3.809,7.435c0.765,2.694,1.147,5.263,1.147,7.71v4.773
			C211.3,45.711,179.355,45.711,179.355,45.711z M188.625,28.913c-1.897,0-3.688,0.566-5.37,1.699
			c-1.683,1.134-2.861,2.923-3.534,5.37h17.715c-0.307-1.958-1.209-3.626-2.708-5.003C193.23,29.602,191.195,28.913,188.625,28.913z
			"/>
		<path fill="#FD6664" d="M234.364,18.725v5.324c1.223-1.774,2.997-3.227,5.324-4.36c2.325-1.131,4.925-1.699,7.802-1.699
			c5.324,0,9.226,1.331,11.703,3.993c2.479,2.661,3.717,6.411,3.717,11.244v31.759h-15.054V37.634c0-1.958-0.459-3.488-1.376-4.59
			c-0.919-1.101-2.203-1.652-3.856-1.652c-2.571,0-4.59,1.117-6.058,3.351c-1.468,2.235-2.203,5.554-2.203,9.959v20.285h-15.053
			V18.725H234.364z"/>
		<path fill="#FD6664" d="M270.406,41.856c0-3.181,0.518-6.211,1.56-9.087c1.039-2.875,2.571-5.416,4.59-7.619
			c2.019-2.203,4.558-3.947,7.619-5.232c3.059-1.285,6.608-1.928,10.647-1.928s7.587,0.643,10.647,1.928
			c3.059,1.285,5.599,3.029,7.619,5.232c2.019,2.203,3.548,4.744,4.59,7.619c1.039,2.877,1.56,5.906,1.56,9.087
			c0,3.182-0.521,6.212-1.56,9.087c-1.042,2.877-2.571,5.416-4.59,7.619c-2.019,2.203-4.56,3.947-7.619,5.232
			c-3.06,1.285-6.608,1.928-10.647,1.928s-7.588-0.643-10.647-1.928c-3.06-1.285-5.599-3.029-7.619-5.232
			c-2.019-2.203-3.55-4.741-4.59-7.619C270.924,48.068,270.406,45.039,270.406,41.856z M285.459,41.856
			c0,3.304,0.749,5.966,2.249,7.986c1.498,2.019,3.869,3.029,7.114,3.029c3.243,0,5.613-1.009,7.114-3.029
			c1.499-2.019,2.249-4.681,2.249-7.986s-0.75-5.967-2.249-7.986c-1.5-2.019-3.87-3.028-7.114-3.028
			c-3.244,0-5.616,1.009-7.114,3.028C286.208,35.889,285.459,38.551,285.459,41.856z"/>
		<path fill="#FD6664" d="M341.114,17.99c3.61,0,6.669,0.704,9.179,2.111c2.509,1.408,4.527,3.274,6.058,5.599l-8.168,7.527
			c-2.019-2.693-4.346-4.039-6.976-4.039c-0.858,0-1.592,0.229-2.203,0.689c-0.613,0.459-0.919,1.087-0.919,1.881
			c0,0.858,0.413,1.622,1.239,2.295c0.827,0.674,2.217,1.346,4.176,2.019c2.264,0.735,4.314,1.485,6.15,2.249
			c1.836,0.766,3.396,1.652,4.682,2.661c1.285,1.009,2.279,2.265,2.983,3.763c0.704,1.5,1.056,3.351,1.056,5.554
			c0,2.081-0.382,4.054-1.147,5.92c-0.766,1.867-1.881,3.504-3.351,4.911c-1.468,1.408-3.259,2.524-5.37,3.351
			c-2.111,0.825-4.483,1.239-7.114,1.239c-2.632,0-4.988-0.337-7.068-1.009c-2.081-0.673-3.901-1.591-5.462-2.753
			c-1.561-1.161-2.923-2.509-4.084-4.039c-1.164-1.529-2.143-3.121-2.937-4.773l11.106-5.966c0.794,2.143,1.866,3.87,3.213,5.186
			c1.345,1.316,3.089,1.973,5.232,1.973c1.039,0,1.973-0.244,2.799-0.733c0.827-0.49,1.239-1.285,1.239-2.387
			c0-0.794-0.276-1.484-0.827-2.065c-0.551-0.581-1.301-1.101-2.248-1.56c-0.95-0.459-2.019-0.886-3.213-1.285
			c-1.193-0.397-2.432-0.872-3.717-1.423c-1.408-0.551-2.739-1.223-3.992-2.02c-1.255-0.794-2.341-1.729-3.259-2.799
			c-0.919-1.069-1.652-2.309-2.203-3.717c-0.551-1.407-0.827-3.028-0.827-4.865c0-1.774,0.367-3.471,1.101-5.094
			c0.735-1.621,1.791-3.059,3.167-4.314c1.376-1.253,3.044-2.249,5.003-2.983C336.372,18.358,338.605,17.99,341.114,17.99z"/>
	</g>
</g>
</svg>
