<?xml version="1.0" encoding="UTF-8" standalone="no"?>
<!-- Created with Inkscape (http://www.inkscape.org/) -->

<svg
   width="100"
   height="92"
   viewBox="0 0 100 92"
   version="1.1"
   id="svg5"
   inkscape:version="1.1 (c68e22c387, 2021-05-23)"
   sodipodi:docname="Colombia_Banrep.svg"
   xmlns:inkscape="http://www.inkscape.org/namespaces/inkscape"
   xmlns:sodipodi="http://sodipodi.sourceforge.net/DTD/sodipodi-0.dtd"
   xmlns="http://www.w3.org/2000/svg"
   xmlns:svg="http://www.w3.org/2000/svg"
   xmlns:rdf="http://www.w3.org/1999/02/22-rdf-syntax-ns#"
   xmlns:cc="http://creativecommons.org/ns#"
   xmlns:dc="http://purl.org/dc/elements/1.1/">
  <title
     id="title105">Warner TV logo</title>
  <sodipodi:namedview
     id="namedview7"
     pagecolor="#ffffff"
     bordercolor="#111111"
     borderopacity="1"
     inkscape:pageshadow="0"
     inkscape:pageopacity="0"
     inkscape:pagecheckerboard="1"
     inkscape:document-units="px"
     showgrid="false"
     units="px"
     width="100px"
     inkscape:zoom="2.4658811"
     inkscape:cx="142.13986"
     inkscape:cy="5.6774838"
     inkscape:window-width="1600"
     inkscape:window-height="878"
     inkscape:window-x="-8"
     inkscape:window-y="-8"
     inkscape:window-maximized="1"
     inkscape:current-layer="layer1"
     scale-x="1"
     height="99px" />
  <defs
     id="defs2" />
  <g
     inkscape:label="Capa 1"
     inkscape:groupmode="layer"
     id="layer1">
    <g
       id="g426"
       transform="matrix(0.65359609,0,0,0.65359609,-1.3614511,0.66877909)">
      <path
         id="path6"
         style="fill:#999999"
         d="m 76.800781,15.390625 c -0.807453,0.0222 -1.455234,0.142484 -1.865234,0.396484 -0.722,0.436 -0.759766,1.257813 -0.759766,1.257813 V 122.4668 c 0,0 12.2645,-6.02364 22.8125,-17.93164 1.666,-1.877 4.889989,-5.222332 8.083989,-9.486332 3.172,10.250002 12.74043,17.716792 24.02343,17.716792 13.856,0 25.125,-11.27381 25.125,-25.132808 0,-13.865 -11.268,-25.128906 -25.125,-25.128906 -6.122,0 -11.73851,2.19675 -16.10351,5.84375 -1.956,-5.471 -6.41211,-8.625 -6.41211,-8.625 0,0 14.27853,-7.695781 14.39453,-16.675781 0.164,-12.836 -29.548798,-24.867047 -34.716798,-26.123047 -3.176249,-0.77925 -7.034671,-1.599812 -9.457031,-1.533203 z m -11.689453,0.05859 c -1.019875,0.01963 -2.170109,0.159656 -3.287109,0.347656 -2.245,0.373 -5.330078,1.785156 -5.330078,1.785156 V 83.55273 c 0,0 -7.106047,-12.730328 -7.123047,-33.736328 -0.006,-19.169 0,-28.335937 0,-28.335937 0,0 0.125234,-1.092625 -0.884766,-1.765625 -1.016,-0.686 -3.013,0.07888 -4.875,0.921875 -1.866,0.844 -5.259766,2.71875 -5.259766,2.71875 0,0 -0.508968,18.312031 -0.167968,24.082031 0.339,5.763 1.701172,18.650391 1.701172,18.650391 l -2.609375,4.640625 c 0,0 -3.327344,-6.50036 -5.027344,-17.69336 -1.696,-11.201 -1.53125,-21.029297 -1.53125,-21.029297 0,0 -1.88e-4,-3.064796 -1.117188,-3.466797 -1.157,-0.406 -3.748875,1.536626 -5.171875,2.640626 -1.415,1.097 -4.734375,4.117187 -4.734375,4.117187 0,0 -0.159406,6.930031 0.683594,14.457031 0.702,6.253 2.309422,12.644281 3.732422,17.238282 3.787,12.302 12.546875,23.349609 12.546875,23.349609 l 6.617188,-9.666016 c 0,0 5.323609,14.637297 8.474609,21.029303 6.108,12.381 16.794922,20.86719 16.794922,20.86719 V 17.757812 c 0,0 -0.0017,-1.481499 -0.927735,-1.9375 -0.5955,-0.2905 -1.484031,-0.390718 -2.503906,-0.371093 z m 21.195313,13.05664 c 0,0 20.648629,5.886594 20.890629,13.808594 0.271,8.638 -20.890629,16.375 -20.890629,16.375 z m 9.078125,38.820313 c 1.668338,-0.01816 5.975964,0.284484 5.886714,7.287109 -0.098,8.026 -14.810542,24.642578 -14.810542,24.642578 V 70.392578 c 0,0 5.679624,-3.15664 8.390624,-3.05664 0.110125,0.0029 0.29487,-0.0072 0.533204,-0.0098 z m 17.958984,11.146484 h 17.57617 l 4.94531,14.414063 4.91407,-14.414063 h 5.84375 l -7.51953,19.992188 h -6.5 l -5.83204,-15.498047 h -4.58984 V 98.46484 h -5.1582 V 82.966797 h -4.91602 c 0.416,-1.139 0.78708,-2.333844 1.08008,-3.589844 0.053,-0.304 0.10525,-0.604297 0.15625,-0.904297 z" />
      <path
         fill="#4fbe96"
         d="m 108.889,102.891 c -14.157,15.363 -35.433,26.98 -37.464,28.079 l -0.081,0.035 -0.079,-0.035 C 68.934,129.709 41.173,114.547 28.005,95.773 7.317,66.264 10.366,30.311 10.366,30.311 l 11.878,-2.38 1.525,-5.595 13.906,-3.561 1.693,-6.952 31.897,-4.731 0.079,-0.011 0.081,0.011 31.898,4.731 1.691,6.952 13.914,3.561 1.524,5.595 11.871,2.38 c 0,0 1.201,14.215 -3.045,32.11 -0.008,0.032 -0.016,0.064 -0.023,0.095 2.671,0.023 5.24,0.462 7.651,1.253 4.754,-21.7 2.191,-39.739 2.191,-39.739 L 124.171,20.98 123.106,15.709 109.565,12.575 107.495,5.454 71.436,0 35.188,5.454 33.301,12.397 20.204,15.55 18.676,21.15 3.924,24.03 c 0,0 -6.247,41.415 17.974,75.642 15.608,22.053 46.739,37.32 49.359,38.721 l 0.087,0.043 0.092,-0.043 c 2.261,-1.203 26.497,-13.521 42.777,-30.267 -2.021,-1.473 -3.819,-3.237 -5.324,-5.235"
         id="path10" />
    </g>
  </g>
  <metadata
     id="metadata20">
    <rdf:RDF>
      <cc:Work
         rdf:about="">
        <cc:license
           rdf:resource="http://scripts.sil.org/OFL" />
        <dc:title>Warner TV logo</dc:title>
        <dc:date>12-jun-2022</dc:date>
      </cc:Work>
      <cc:License
         rdf:about="http://scripts.sil.org/OFL">
        <cc:permits
           rdf:resource="http://scripts.sil.org/pub/OFL/Reproduction" />
        <cc:permits
           rdf:resource="http://scripts.sil.org/pub/OFL/Distribution" />
        <cc:permits
           rdf:resource="http://scripts.sil.org/pub/OFL/Embedding" />
        <cc:permits
           rdf:resource="http://scripts.sil.org/pub/OFL/DerivativeWorks" />
        <cc:requires
           rdf:resource="http://scripts.sil.org/pub/OFL/Notice" />
        <cc:requires
           rdf:resource="http://scripts.sil.org/pub/OFL/Attribution" />
        <cc:requires
           rdf:resource="http://scripts.sil.org/pub/OFL/ShareAlike" />
        <cc:requires
           rdf:resource="http://scripts.sil.org/pub/OFL/DerivativeRenaming" />
        <cc:requires
           rdf:resource="http://scripts.sil.org/pub/OFL/BundlingWhenSelling" />
      </cc:License>
    </rdf:RDF>
  </metadata>
</svg>
